<svg height="511pt" viewBox="1 -46 511.99998 511" width="511pt" xmlns="http://www.w3.org/2000/svg"><path d="m38.007812 163.519531h24.65625v64.832031h-24.65625zm0 0" fill="#fabc36"/><path d="m62.664062 149.386719h-24.65625c-7.804687 0-14.132812 6.328125-14.132812 14.132812 0 7.800781 6.328125 14.128907 14.132812 14.128907h24.65625c7.800782 0 14.128907-6.324219 14.128907-14.128907 0-7.804687-6.324219-14.132812-14.128907-14.132812zm0 0" fill="#ffd54f"/><path d="m244.089844 354.132812c6.046875-11.214843 2.476562-25.464843-8.515625-31.90625-11.539063-6.765624-26.292969-2.566406-32.585938 9.109376l-38.207031 70.882812c-4.445312 8.242188 1.523438 18.238281 10.886719 18.238281h25.285156c4.546875 0 8.730469-2.496093 10.886719-6.5zm0 0" fill="#b67248"/><path d="m372.472656 354.132812c-6.042968-11.214843-2.476562-25.464843 8.515625-31.90625 11.542969-6.765624 26.292969-2.566406 32.585938 9.109376l38.210937 70.882812c4.441406 8.242188-1.527344 18.238281-10.890625 18.238281h-25.285156c-4.546875 0-8.730469-2.496093-10.886719-6.5zm0 0" fill="#b67248"/><path d="m438.855469 378.230469-25.277344-46.894531c-6.296875-11.675782-21.046875-15.875-32.589844-9.109376-10.988281 6.441407-14.558593 20.691407-8.515625 31.90625l21.074219 39.09375c5.179687-1.300781 10.320313-2.710937 15.410156-4.257812 10.222657-3.101562 20.207031-6.699219 29.898438-10.738281zm0 0" fill="#a66842"/><path d="m207.597656 388.964844c5.09375 1.546875 10.238282 2.957031 15.417969 4.261718l21.074219-39.09375c6.046875-11.214843 2.476562-25.464843-8.515625-31.90625-11.539063-6.765624-26.292969-2.566406-32.585938 9.109376l-25.277343 46.890624c9.699218 4.046876 19.683593 7.644532 29.886718 10.738282zm0 0" fill="#a66842"/><path d="m36.554688 278.429688h-36.554688v-18.910157c0-26.714843 21.734375-48.449219 48.449219-48.449219h76.875v36.550782h-76.875c-6.558594 0-11.894531 5.339844-11.894531 11.898437zm0 0" fill="#ffd54f"/><g fill="#d28654"><path d="m167.152344 186.621094-31.292969-37.234375-31.296875 37.234375v47.089844l31.296875 45.964843 31.292969-18.601562 24.710937-37.996094zm0 0"/><path d="m449.410156 186.621094 31.296875-37.234375 31.292969 37.234375v47.089844l-31.292969 45.964843-31.296875-18.601562-24.710937-37.996094zm0 0"/><path d="m167.152344 34.109375c-20.667969 10.953125-39.007813 24.25-54.335938 39.371094-5.265625 5.191406-8.253906 12.273437-8.253906 19.667969v46.378906l31.296875 9.859375 31.292969-37.234375 24.710937-46.777344zm0 0"/></g><path d="m167.152344 112.15625c-42.683594 12.75-62.589844 27.371094-62.589844 27.371094v47.09375h62.589844l24.710937-46.535156zm0 0" fill="#b67248"/><path d="m167.152344 261.074219c-42.683594-12.742188-62.589844-27.363281-62.589844-27.363281v46.382812c0 7.394531 2.988281 14.472656 8.253906 19.664062 15.328125 15.125 33.671875 28.429688 54.335938 39.382813l24.710937-34.597656zm0 0" fill="#b67248"/><path d="m449.410156 34.109375c20.667969 10.953125 39.007813 24.25 54.339844 39.371094 5.261719 5.191406 8.25 12.273437 8.25 19.667969v46.378906l-31.292969 9.859375-31.296875-37.234375-24.710937-46.777344zm0 0" fill="#d28654"/><path d="m449.410156 112.15625c42.683594 12.75 62.589844 27.371094 62.589844 27.371094v47.09375h-62.589844l-24.710937-46.535156zm0 0" fill="#b67248"/><path d="m449.410156 261.074219c42.683594-12.742188 62.589844-27.363281 62.589844-27.363281v46.382812c0 7.394531-2.988281 14.472656-8.25 19.664062-15.332031 15.125-33.671875 28.429688-54.339844 39.382813l-24.710937-34.597656zm0 0" fill="#b67248"/><path d="m399.988281 13.847656c-28.34375-8.605468-59.289062-13.347656-91.707031-13.347656s-63.363281 4.742188-91.707031 13.347656l-24.710938 51.527344 24.710938 35.425781h183.414062l24.710938-35.425781zm0 0" fill="#d28654"/><path d="m399.988281 100.800781c-25.785156-4.351562-56.269531-7.246093-91.707031-7.246093s-65.921875 2.890624-91.707031 7.246093l-24.710938 39.285157 24.710938 46.535156 91.707031 23.925781 91.707031-23.925781 24.710938-46.535156zm0 0" fill="#b67248"/><path d="m399.988281 359.390625c-28.34375 8.609375-59.289062 13.347656-91.707031 13.347656s-63.363281-4.742187-91.707031-13.347656l-24.710938-51.527344 24.710938-35.425781h183.414062l24.710938 35.425781zm0 0" fill="#b67248"/><path d="m399.988281 186.621094 24.710938 46.53125-24.710938 39.285156c-25.785156 4.355469-56.269531 7.246094-91.707031 7.246094s-65.921875-2.890625-91.707031-7.246094l-24.710938-39.285156 24.710938-46.53125zm0 0" fill="#d28654"/><path d="m216.574219 13.847656v345.542969c-17.566407-5.324219-34.132813-12.15625-49.421875-20.25v-305.03125c15.292968-8.105469 31.855468-14.925781 49.421875-20.261719zm0 0" fill="#fabc36"/><path d="m449.410156 34.097656v305.042969c-15.289062 8.105469-31.855468 14.925781-49.421875 20.25v-345.542969c17.578125 5.324219 34.140625 12.15625 49.421875 20.25zm0 0" fill="#fabc36"/><path d="m248.652344 151.222656c-4.269532 0-7.726563-3.460937-7.726563-7.726562v-10.792969c0-4.265625 3.457031-7.726563 7.726563-7.726563 4.265625 0 7.726562 3.460938 7.726562 7.726563v10.792969c0 4.265625-3.460937 7.726562-7.726562 7.726562zm0 0" fill="#3a484a"/><path d="m367.914062 151.222656c-4.269531 0-7.726562-3.460937-7.726562-7.726562v-10.792969c0-4.265625 3.457031-7.726563 7.726562-7.726563 4.265626 0 7.726563 3.460938 7.726563 7.726563v10.792969c0 4.265625-3.460937 7.726562-7.726563 7.726562zm0 0" fill="#3a484a"/><path d="m308.28125 156.984375c-7.964844 0-15.453125-3.335937-20.535156-9.152344-2.808594-3.214843-2.480469-8.097656.734375-10.902343 3.210937-2.808594 8.089843-2.484376 10.902343.730468 2.148438 2.460938 5.390626 3.871094 8.898438 3.871094s6.75-1.410156 8.898438-3.871094c2.808593-3.214844 7.691406-3.542968 10.902343-.730468 3.214844 2.804687 3.542969 7.6875.734375 10.902343-5.082031 5.816407-12.566406 9.152344-20.535156 9.152344zm0 0" fill="#3a484a"/><path d="m76.792969 211.070312h27.769531v36.550782h-27.769531zm0 0" fill="#fabc36"/></svg>