<?xml version="1.0" encoding="iso-8859-1"?>
<!-- Generator: Adobe Illustrator 19.0.0, SVG Export Plug-In . SVG Version: 6.00 Build 0)  -->
<svg version="1.1" id="Capa_1" xmlns="http://www.w3.org/2000/svg" xmlns:xlink="http://www.w3.org/1999/xlink" x="0px" y="0px"
	 viewBox="0 0 512 512" style="enable-background:new 0 0 512 512;" xml:space="preserve">
<path style="fill:#0582B0;" d="M512,256c0,141.385-114.615,256-256,256S0,397.385,0,256S114.615,0,256,0S512,114.615,512,256z"/>
<path style="fill:#F8BB5E;" d="M290,221.832c-25.633,42.026-71.905,70.084-124.732,70.084c-80.634,0-146-65.366-146-146
	C19.268,66.866,82.093,2.499,160.535,0c-13.492,22.121-21.268,48.11-21.268,75.916c0,80.634,65.366,146,146,146
	C286.852,221.916,288.428,221.882,290,221.832z"/>
<path style="fill:#FFDF8E;" d="M151.231,387.292l10.493,5.738l-10.493,5.739l-5.738,10.492l-5.739-10.492l-10.492-5.739
	l10.492-5.738l5.739-10.493L151.231,387.292z M206.231,82.462l5.739-10.492l10.492-5.739l-10.492-5.739L206.231,50l-5.738,10.492
	L190,66.231l10.493,5.739L206.231,82.462z M339.261,183.03l-5.739,10.493l-10.493,5.739L333.523,205l5.739,10.492L345,205
	l10.493-5.739L345,193.523L339.261,183.03z M411.97,350.492L406.231,340l-5.739,10.492L390,356.231l10.492,5.739l5.739,10.492
	l5.739-10.492l10.492-5.739L411.97,350.492z M285.268,221.916c1.584,0,3.16-0.034,4.732-0.084
	c-7.023,11.514-15.604,21.97-25.435,31.098C244.122,263.824,220.782,270,196,270c-40.85,0-77.774-16.784-104.273-43.823
	C96.732,222.542,100,216.659,100,210c0-11.046-8.954-20-20-20c-4.552,0-8.734,1.538-12.095,4.099C56.494,173.292,50,149.405,50,124
	c0-5.479,0.308-10.885,0.896-16.207C53.629,109.194,56.718,110,60,110c11.046,0,20-8.954,20-20c0-10.937-8.783-19.81-19.678-19.984
	c8.087-20.301,20.589-38.365,36.335-52.991C115.805,6.812,137.495,0.734,160.535,0c-13.492,22.121-21.268,48.11-21.268,75.916
	C139.268,156.549,204.634,221.916,285.268,221.916z M130,135c0-8.284-6.716-15-15-15s-15,6.716-15,15s6.716,15,15,15
	S130,143.284,130,135z M170,210c0-11.046-8.954-20-20-20s-20,8.954-20,20s8.954,20,20,20S170,221.046,170,210z"/>
<path style="fill:#007298;" d="M512,256c0,15.005-1.304,29.703-3.78,44H335c-8.525,0-15.389-7.111-14.983-15.725
	c0.38-8.068,7.33-14.275,15.407-14.275H365c8.284,0,15-6.716,15-15s6.716-15,15-15h116.488C511.814,245.293,512,250.625,512,256z
	 M260,325c0-8.284-6.716-15-15-15H90c-5.523,0-10-4.477-10-10s4.477-10,10-10h15c8.284,0,15-6.716,15-15s-6.716-15-15-15H0.051
	c0.156,10.154,0.896,20.166,2.201,30H60c5.523,0,10,4.477,10,10s-4.477,10-10,10H35c-8.284,0-15,6.716-15,15s6.716,15,15,15h210
	C253.284,340,260,333.284,260,325z M270,435c0,8.284,6.716,15,15,15h138.029c10.645-9.174,20.522-19.212,29.532-30H285
	C276.716,420,270,426.716,270,435z M265,150h130c8.284,0,15-6.716,15-15s-6.716-15-15-15h5c-5.523,0-10-4.477-10-10s4.477-10,10-10
	h58.971c-8.236-10.7-17.292-20.735-27.087-30H345c-8.284,0-15,6.716-15,15s6.716,15,15,15h25c5.523,0,10,4.477,10,10
	s-4.477,10-10,10H265c-8.284,0-15,6.716-15,15S256.716,150,265,150z M330,375c0-8.284-6.716-15-15-15h-80c-8.284,0-15,6.716-15,15
	s6.716,15,15,15h80C323.284,390,330,383.284,330,375z M165,440H85c-2.049,0-4.001,0.414-5.781,1.158
	c11.169,10.667,23.311,20.32,36.264,28.842H165c8.284,0,15-6.716,15-15S173.284,440,165,440z"/>
<g>
</g>
<g>
</g>
<g>
</g>
<g>
</g>
<g>
</g>
<g>
</g>
<g>
</g>
<g>
</g>
<g>
</g>
<g>
</g>
<g>
</g>
<g>
</g>
<g>
</g>
<g>
</g>
<g>
</g>
</svg>
